#!OML:ASF I:\Actors\actors\Patient Classification 1\Patient 1\Session 1\Subject1.ASF
:FULLY-SPECIFIED
:DEGREES
1137
root 0.384285 17.5678 9.44416 13.9816 -0.540681 -10.6197
lowerback 5.12566 2.45018 4.27084
upperback -6.40978 3.8586 1.51467
thorax -9.51001 1.64649 -1.28294
lowerneck -20.1218 -5.67807 -2.8444
upperneck 22.0443 -9.75956 10.0016
head 11.1686 -3.45794 2.56636
rclavicle -5.2827e-014 -1.98785e-014
rhumerus 29.7561 48.5859 -37.6956
rradius 82.2923
rwrist 22.5879
rhand 10.9261 -24.4551
rfingers 7.12502
rthumb 36.0042 -50.7706
lclavicle -5.2827e-014 -1.98785e-014
lhumerus 19.5005 -35.628 70.746
lradius 52.7969
lwrist 33.3186
lhand -50.151 -26.6626
lfingers 7.12502
lthumb -22.734 2.01803
rfemur -12.1072 19.3916 26.5855
rtibia 6.87956
rfoot -11.0246 -20.7805
rtoes -0.563312
lfemur -2.07645 -44.4229 -4.09783
ltibia -3.58774
lfoot -23.7069 53.142
ltoes 11.5433
1138
root 0.381512 17.5679 9.44257 14.0104 -0.429925 -10.5824
lowerback 5.116 2.45751 4.24856
upperback -6.40247 3.86783 1.54063
thorax -9.49895 1.65412 -1.24359
lowerneck -20.0849 -5.685 -2.85592
upperneck 21.9548 -9.73337 9.92626
head 11.1213 -3.46097 2.54474
rclavicle -1.32192e-014 3.65764e-014
rhumerus 29.4827 48.1053 -37.0803
rradius 82.5097
rwrist 22.7815
rhand 10.773 -22.9918
rfingers 7.12502
rthumb 35.8592 -49.3428
lclavicle -1.32192e-014 3.65764e-014
lhumerus 19.5338 -35.6694 70.8324
lradius 52.8402
lwrist 33.1373
lhand -50.1705 -26.9298
lfingers 7.12502
lthumb -22.7527 1.74855
rfemur -12.1186 19.415 26.5439
rtibia 6.83376
rfoot -11.0815 -20.9008
rtoes -0.287029
lfemur -2.1901 -44.5537 -4.03638
ltibia -3.58137
lfoot -23.6915 53.1828
ltoes 11.4907
1139
root 0.378132 17.5684 9.442 14.0513 -0.299289 -10.5468
lowerback 5.08428 2.44335 4.22317
upperback -6.39631 3.84701 1.57334
thorax -9.4781 1.64787 -1.19052
lowerneck -20.1395 -5.66523 -2.82448
upperneck 21.9647 -9.68745 9.82377
head 11.1234 -3.44767 2.50896
rclavicle -4.12478e-014 -3.02153e-014
rhumerus 29.3017 47.643 -36.5377
rradius 82.4143
rwrist 23.0852
rhand 10.4768 -21.6174
rfingers 7.12502
rthumb 35.5785 -48.0364
lclavicle -4.12478e-014 -3.02153e-014
lhumerus 19.5792 -35.7063 70.833
lradius 52.8762
lwrist 33.0047
lhand -50.2363 -26.9459
lfingers 7.12502
lthumb -22.8159 1.72471
rfemur -12.1349 19.4727 26.5027
rtibia 6.77398
rfoot -11.1475 -21.0625
rtoes 0.0790777
lfemur -2.32892 -44.6545 -3.95113
ltibia -3.56957
lfoot -23.6041 53.1853
ltoes 11.3852
1140
root 0.374015 17.5694 9.44013 14.0725 -0.248027 -10.5532
lowerback 5.09095 2.45121 4.21712
upperback -6.39447 3.8609 1.61301
thorax -9.48275 1.65668 -1.14719
lowerneck -20.2261 -5.63666 -2.76524
upperneck 22.0879 -9.64351 9.69286
head 11.1711 -3.43096 2.45866
rclavicle -1.32689e-014 8.74653e-015
rhumerus 29.2164 47.1913 -36.0272
rradius 82.0008
rwrist 23.3453
rhand 10.2248 -20.3009
rfingers 7.12502
rthumb 35.3395 -46.777
lclavicle -1.32689e-014 8.74653e-015
lhumerus 19.68 -35.7928 70.7435
lradius 52.8539
lwrist 33.1027
lhand -50.2964 -27.1258
lfingers 7.12502
lthumb -22.8736 1.53764
rfemur -12.1536 19.5071 26.5154
rtibia 6.75363
rfoot -11.157 -21.1264
rtoes 0.187358
lfemur -2.34992 -44.8229 -3.89316
ltibia -3.60208
lfoot -23.7258 53.2835
ltoes 11.5182
1141
root 0.36968 17.5699 9.43771 14.0394 -0.270651 -10.5776
lowerback 5.13674 2.48566 4.2244
upperback -6.37325 3.91357 1.65492
thorax -9.48695 1.68362 -1.11526
lowerneck -20.2858 -5.61591 -2.74207
upperneck 22.1983 -9.59118 9.54003
head 11.2084 -3.41784 2.40798
rclavicle -1.81391e-014 5.96354e-014
rhumerus 29.1355 46.7342 -35.6037
rradius 81.2501
rwrist 23.6807
rhand 9.84191 -19.0855
rfingers 7.12502
rthumb 34.9764 -45.6471
lclavicle -1.81391e-014 5.96354e-014
lhumerus 19.8364 -35.8903 70.6507
lradius 52.782
lwrist 33.3917
lhand -50.2721 -27.1834
lfingers 7.12502
lthumb -22.8502 1.48295
rfemur -12.132 19.4746 26.57
rtibia 6.77206
rfoot -11.1346 -21.0844
rtoes 0.103041
lfemur -2.25028 -44.9478 -3.92458
ltibia -3.62573
lfoot -23.9091 53.4038
ltoes 11.6673
1142
root 0.36684 17.5695 9.43546 13.9987 -0.259454 -10.5924
lowerback 5.15715 2.50203 4.26214
upperback -6.33787 3.94155 1.68672
thorax -9.45891 1.69693 -1.10623
lowerneck -20.2992 -5.63091 -2.67798
upperneck 22.2361 -9.59958 9.40502
head 11.2135 -3.43092 2.34689
rclavicle -2.11209e-014 3.18055e-014
rhumerus 29.1731 46.3034 -35.2586
rradius 80.0755
rwrist 24.3357
rhand 9.02025 -18.116
rfingers 7.12502
rthumb 34.1965 -44.856
lclavicle -2.11209e-014 3.18055e-014
lhumerus 19.9569 -35.9281 70.595
lradius 52.77
lwrist 33.7049
lhand -50.2633 -27.0626
lfingers 7.12502
lthumb -22.8418 1.60473
rfemur -12.0973 19.4297 26.6161
rtibia 6.7814
rfoot -11.1223 -21.0682
rtoes 0.0335207
lfemur -2.1992 -44.9519 -3.94143
ltibia -3.62458
lfoot -23.8266 53.4243
ltoes 11.4478
1143
root 0.364972 17.5696 9.43366 13.9785 -0.235576 -10.6547
lowerback 5.16849 2.51993 4.39227
upperback -6.32066 3.97982 1.70648
thorax -9.43875 1.70794 -1.16229
lowerneck -20.2519 -5.67085 -2.6347
upperneck 22.2439 -9.64667 9.31754
head 11.2027 -3.4606 2.30097
rclavicle -3.34952e-014 -4.77083e-015
rhumerus 29.3127 45.9051 -34.862
rradius 78.6367
rwrist 24.9742
rhand 7.91541 -17.0998
rfingers 7.12502
rthumb 33.1466 -44.069
lclavicle -3.34952e-014 -4.77083e-015
lhumerus 20.0339 -35.9803 70.5678
lradius 52.8181
lwrist 33.946
lhand -50.3923 -26.9683
lfingers 7.12502
lthumb -22.9656 1.68379
rfemur -12.0782 19.4139 26.7129
rtibia 6.78713
rfoot -11.0868 -21.067
rtoes -0.0707147
lfemur -2.19384 -44.845 -3.85598
ltibia -3.63766
lfoot -23.5701 53.3504
ltoes 11.113
1144
root 0.362624 17.5703 9.43195 13.9567 -0.228775 -10.7349
lowerback 5.18972 2.5544 4.54331
upperback -6.30702 4.04315 1.72435
thorax -9.42571 1.72944 -1.23561
lowerneck -20.2193 -5.70734 -2.65321
upperneck 22.2877 -9.68755 9.28243
head 11.2142 -3.48436 2.28549
rclavicle -1.90336e-014 2.26615e-014
rhumerus 29.4393 45.567 -34.4464
rradius 77.126
rwrist 25.3082
rhand 6.67142 -16.2035
rfingers 7.12502
rthumb 31.9629 -43.4169
lclavicle -1.90336e-014 2.26615e-014
lhumerus 20.1251 -36.0796 70.56
lradius 52.872
lwrist 34.0429
lhand -50.4744 -26.7204
lfingers 7.12502
lthumb -23.0444 1.92188
rfemur -12.0565 19.4271 26.8287
rtibia 6.79056
rfoot -11.0327 -21.0768
rtoes -0.130236
lfemur -2.19446 -44.6553 -3.7436
ltibia -3.64674
lfoot -23.311 53.2177
ltoes 10.9275
1145
root 0.359976 17.5721 9.42923 13.9559 -0.223422 -10.7165
lowerback 5.18125 2.57056 4.57105
upperback -6.29175 4.06732 1.73663
thorax -9.40188 1.74063 -1.24014
lowerneck -20.2151 -5.73197 -2.67357
upperneck 22.3471 -9.7053 9.22072
head 11.2336 -3.49964 2.26405
rclavicle 7.45443e-016 -1.63003e-014
rhumerus 29.7331 45.422 -33.9639
rradius 75.5274
rwrist 25.5832
rhand 5.4222 -15.7261
rfingers 7.12502
rthumb 30.7726 -43.1706
lclavicle 7.45443e-016 -1.63003e-014
lhumerus 20.1765 -36.1065 70.5962
lradius 52.9157
lwrist 33.9278
lhand -50.3686 -26.3932
lfingers 7.12502
lthumb -22.9428 2.26168
rfemur -12.0774 19.4887 26.8068
rtibia 6.81495
rfoot -11.0516 -21.135
rtoes 0.0658723
lfemur -2.25814 -44.5169 -3.70815
ltibia -3.63202
lfoot -23.1793 53.103
ltoes 10.9235
1146
root 0.358737 17.5735 9.42623 13.9627 -0.235296 -10.6554
lowerback 5.16635 2.57388 4.56144
upperback -6.26974 4.06946 1.74585
thorax -9.36984 1.74383 -1.22401
lowerneck -20.2352 -5.7412 -2.65547
upperneck 22.4074 -9.6925 9.08383
head 11.2489 -3.50642 2.21345
rclavicle -2.22142e-014 1.51076e-014
rhumerus 30.2972 45.4771 -33.2717
rradius 73.9159
rwrist 25.9359
rhand 4.44122 -15.4861
rfingers 7.12502
rthumb 29.8369 -43.1028
lclavicle -2.22142e-014 1.51076e-014
lhumerus 20.2015 -36.041 70.681
lradius 52.9315
lwrist 33.728
lhand -50.1975 -26.0434
lfingers 7.12502
lthumb -22.7786 2.63171
rfemur -12.12 19.5424 26.7295
rtibia 6.86913
rfoot -11.1031 -21.1752
rtoes 0.191927
lfemur -2.30795 -44.4605 -3.74412
ltibia -3.61213
lfoot -23.1986 53.0382
ltoes 10.9653
1147
root 0.358126 17.5731 9.4248 13.949 -0.249367 -10.6669
lowerback 5.16477 2.58904 4.63871
upperback -6.24418 4.09773 1.76833
thorax -9.33636 1.75433 -1.24573
lowerneck -20.1991 -5.7461 -2.66371
upperneck 22.3832 -9.67716 9.02442
head 11.2281 -3.50968 2.19624
rclavicle 6.55989e-015 -6.75868e-015
rhumerus 31.0355 45.6622 -32.4304
rradius 72.2448
rwrist 26.4049
rhand 3.76727 -15.272
rfingers 7.12502
rthumb 29.1935 -43.0023
lclavicle 6.55989e-015 -6.75868e-015
lhumerus 20.2173 -36.0385 70.7542
lradius 52.9568
lwrist 33.6531
lhand -50.1388 -25.7619
lfingers 7.12502
lthumb -22.7223 2.92017
rfemur -12.1095 19.5559 26.7534
rtibia 6.87402
rfoot -11.0728 -21.1753
rtoes 0.135114
lfemur -2.30905 -44.3562 -3.73087
ltibia -3.59612
lfoot -23.1764 52.9468
ltoes 10.8878
1148
root 0.357535 17.5727 9.42477 13.9511 -0.268563 -10.6671
lowerback 5.1418 2.60285 4.7218
upperback -6.23832 4.12397 1.78714
thorax -9.31137 1.76294 -1.27358
lowerneck -20.1631 -5.75865 -2.80359
upperneck 22.3876 -9.67587 9.11555
head 11.2356 -3.51082 2.25346
rclavicle -1.2101e-014 -1.43125e-014
rhumerus 31.9806 46.0105 -31.4641
rradius 70.3688
rwrist 27.1448
rhand 3.14231 -14.8091
rfingers 7.12502
rthumb 28.5965 -42.6416
lclavicle -1.2101e-014 -1.43125e-014
lhumerus 20.1724 -36.1065 70.7959
lradius 52.9958
lwrist 33.6819
lhand -50.2373 -25.7831
lfingers 7.12502
lthumb -22.8168 2.88739
rfemur -12.0915 19.5394 26.7604
rtibia 6.83117
rfoot -10.9991 -21.1473
rtoes 0.0781589
lfemur -2.32784 -44.2589 -3.72288
ltibia -3.57576
lfoot -23.1187 52.8866
ltoes 10.882
1149
root 0.35824 17.573 9.42435 13.9835 -0.331923 -10.6244
lowerback 5.09116 2.62529 4.80014
upperback -6.23211 4.15672 1.77538
thorax -9.26697 1.77443 -1.3304
lowerneck -20.2587 -5.77349 -2.83971
upperneck 22.51 -9.67309 9.02461
head 11.2953 -3.51634 2.22589
rclavicle -1.68967e-015 8.74653e-015
rhumerus 33.0859 46.4292 -30.3799
rradius 68.4997
rwrist 27.7521
rhand 2.52127 -14.0735
rfingers 7.12502
rthumb 28.003 -42.0044
lclavicle -1.68967e-015 8.74653e-015
lhumerus 20.1846 -36.1872 70.7926
lradius 52.9739
lwrist 33.7085
lhand -50.2452 -26.0858
lfingers 7.12502
lthumb -22.8244 2.58371
rfemur -12.1283 19.4682 26.7032
rtibia 6.82739
rfoot -10.9353 -21.0524
rtoes -0.138367
lfemur -2.36482 -44.1677 -3.76773
ltibia -3.55499
lfoot -23.0635 52.8666
ltoes 10.9356
1150
root 0.359252 17.5732 9.42322 14.0215 -0.441613 -10.6057
lowerback 5.06507 2.67861 4.91895
upperback -6.23665 4.23446 1.73167
thorax -9.24138 1.80315 -1.4503
lowerneck -20.3518 -5.79179 -2.67202
upperneck 22.6089 -9.67747 8.71739
head 11.3218 -3.53554 2.08432
rclavicle -2.10712e-014 -1.94809e-014
rhumerus 34.1214 46.8872 -29.2761
rradius 67.0625
rwrist 27.7814
rhand 2.22259 -13.5173
rfingers 7.12502
rthumb 27.7174 -41.4945
lclavicle -2.10712e-014 -1.94809e-014
lhumerus 20.2541 -36.3473 70.7603
lradius 52.883
lwrist 33.7317
lhand -50.1404 -26.6613
lfingers 7.12502
lthumb -22.7238 2.02062
rfemur -12.1997 19.4066 26.6612
rtibia 6.87184
rfoot -10.8931 -20.9241
rtoes -0.414714
lfemur -2.4017 -43.9766 -3.78915
ltibia -3.53751
lfoot -23.0059 52.7909
ltoes 10.873
